<svg width="316.2" height="78.601" viewBox="0 0 316.2 78.601" xmlns="http://www.w3.org/2000/svg"><g id="svgGroup" stroke-linecap="round" fill-rule="evenodd" font-size="9pt" stroke="0" stroke-width="0.25mm" fill="#47702e" style="stroke:0;stroke-width:0.25mm;fill:#47702e"><path d="M 42 54.7 L 42 51.5 L 35.9 51.5 L 35.9 33.1 L 64.8 33.1 L 64.8 73.2 Q 50.6 78.6 35.3 78.6 Q 27.533 78.6 21.763 77.232 A 33.999 33.999 0 0 1 17.95 76.1 A 27.385 27.385 0 0 1 11.855 73.017 A 22.105 22.105 0 0 1 7.1 68.65 Q 3.1 63.7 1.55 56.35 A 66.853 66.853 0 0 1 0.491 49.45 Q 0.123 45.897 0.031 41.908 A 117.52 117.52 0 0 1 0 39.2 Q 0 30.73 1.261 24.216 A 50.163 50.163 0 0 1 1.9 21.35 A 32.234 32.234 0 0 1 4.231 14.959 A 24.565 24.565 0 0 1 8.2 9.15 A 23.509 23.509 0 0 1 15.224 4.014 A 31.105 31.105 0 0 1 19.9 2.2 A 46.418 46.418 0 0 1 26.409 0.776 Q 29.646 0.291 33.364 0.109 A 95.029 95.029 0 0 1 38 0 A 55.86 55.86 0 0 1 39.92 0.035 Q 41.619 0.094 43.65 0.25 Q 46.9 0.5 50.2 0.95 A 136.473 136.473 0 0 1 54.572 1.616 A 116.605 116.605 0 0 1 56.45 1.95 A 57.813 57.813 0 0 1 58.182 2.299 Q 59.963 2.688 61.2 3.1 L 57.6 21.5 A 167.506 167.506 0 0 0 51.671 20.637 A 140.739 140.739 0 0 0 48.3 20.25 A 89.356 89.356 0 0 0 43.54 19.886 A 71.117 71.117 0 0 0 40.1 19.8 Q 32.2 19.8 29 21 A 5.283 5.283 0 0 0 27.245 22.046 Q 25.8 23.381 25.8 25.8 L 25.8 59.8 L 33.7 59.8 Q 37.27 59.8 39.227 59.175 A 6.167 6.167 0 0 0 40.05 58.85 Q 41.683 58.055 41.949 55.681 A 8.838 8.838 0 0 0 42 54.7 Z M 256.2 76.8 L 256.2 16.8 L 268.2 16.8 L 274.2 22.8 Q 285.3 15 298.2 15 A 31.885 31.885 0 0 1 303.375 15.393 Q 306.122 15.846 308.334 16.82 A 15.03 15.03 0 0 1 311.45 18.65 A 11.774 11.774 0 0 1 316.126 27.22 A 16.428 16.428 0 0 1 316.2 28.8 L 316.2 76.8 L 292.2 76.8 L 292.2 34.8 L 288.5 34.8 A 31.973 31.973 0 0 0 286.352 34.867 Q 284.234 35.01 282.833 35.458 A 7.537 7.537 0 0 0 282.3 35.65 Q 280.2 36.5 280.2 39.4 L 280.2 76.8 L 256.2 76.8 Z M 144 56.4 L 144 60.6 Q 145.8 60.8 147.6 60.9 Q 149.4 61 151.2 61 A 73.99 73.99 0 0 0 171.665 58.043 A 83.513 83.513 0 0 0 173.8 57.4 L 176.6 75 A 104.143 104.143 0 0 1 153.282 78.544 A 95.935 95.935 0 0 1 150 78.6 A 56.814 56.814 0 0 1 141.286 77.979 Q 131.091 76.392 125.7 70.75 Q 118.2 62.9 118.2 46.8 A 54.63 54.63 0 0 1 118.866 37.968 Q 119.629 33.319 121.268 29.626 A 23.313 23.313 0 0 1 125.75 22.85 Q 133.3 15 150 15 Q 158.4 15 164 16.05 Q 169.6 17.1 173.05 19.55 Q 176.5 22 177.95 26.15 Q 179.075 29.37 179.327 33.884 A 48.745 48.745 0 0 1 179.4 36.6 Q 179.4 41.522 177.832 45.145 A 15.754 15.754 0 0 1 177.65 45.55 A 13.186 13.186 0 0 1 173.813 50.33 A 17.241 17.241 0 0 1 171.8 51.7 A 23.041 23.041 0 0 1 168.104 53.414 Q 166.207 54.111 163.947 54.641 A 49.789 49.789 0 0 1 160.9 55.25 A 71.904 71.904 0 0 1 155.336 55.951 Q 150.313 56.4 144 56.4 Z M 211.8 56.4 L 211.8 60.6 Q 213.6 60.8 215.4 60.9 Q 217.2 61 219 61 A 73.99 73.99 0 0 0 239.465 58.043 A 83.513 83.513 0 0 0 241.6 57.4 L 244.4 75 A 104.143 104.143 0 0 1 221.082 78.544 A 95.935 95.935 0 0 1 217.8 78.6 A 56.814 56.814 0 0 1 209.086 77.979 Q 198.891 76.392 193.5 70.75 Q 186 62.9 186 46.8 A 54.63 54.63 0 0 1 186.666 37.968 Q 187.429 33.319 189.068 29.626 A 23.313 23.313 0 0 1 193.55 22.85 Q 201.1 15 217.8 15 Q 226.2 15 231.8 16.05 Q 237.4 17.1 240.85 19.55 Q 244.3 22 245.75 26.15 Q 246.875 29.37 247.127 33.884 A 48.745 48.745 0 0 1 247.2 36.6 Q 247.2 41.522 245.632 45.145 A 15.754 15.754 0 0 1 245.45 45.55 A 13.186 13.186 0 0 1 241.613 50.33 A 17.241 17.241 0 0 1 239.6 51.7 A 23.041 23.041 0 0 1 235.904 53.414 Q 234.007 54.111 231.747 54.641 A 49.789 49.789 0 0 1 228.7 55.25 A 71.904 71.904 0 0 1 223.136 55.951 Q 218.113 56.4 211.8 56.4 Z M 99.6 76.8 L 75.6 76.8 L 75.6 16.8 L 87.6 16.8 L 94.2 23.5 Q 101.4 16.9 112 15 L 113.4 37.7 A 12.391 12.391 0 0 0 112.266 37.756 Q 111.663 37.812 110.977 37.923 A 26.687 26.687 0 0 0 110 38.1 Q 108 38.5 105.95 39.1 A 23.922 23.922 0 0 0 103.41 39.995 A 20.101 20.101 0 0 0 102.2 40.55 A 10.319 10.319 0 0 0 100.994 41.252 Q 100.388 41.666 99.935 42.128 A 5.518 5.518 0 0 0 99.6 42.5 L 99.6 76.8 Z M 144 37.6 L 144 42.5 L 148.9 42.5 A 34.649 34.649 0 0 0 150.947 42.444 Q 153.02 42.321 154.359 41.928 A 6.487 6.487 0 0 0 155.25 41.6 Q 157.2 40.7 157.2 37.4 L 157.2 32.5 L 152.3 32.5 Q 148.792 32.5 146.841 33.072 A 6.487 6.487 0 0 0 145.95 33.4 Q 144 34.3 144 37.6 Z M 211.8 37.6 L 211.8 42.5 L 216.7 42.5 A 34.649 34.649 0 0 0 218.747 42.444 Q 220.82 42.321 222.159 41.928 A 6.487 6.487 0 0 0 223.05 41.6 Q 225 40.7 225 37.4 L 225 32.5 L 220.1 32.5 Q 216.592 32.5 214.641 33.072 A 6.487 6.487 0 0 0 213.75 33.4 Q 211.8 34.3 211.8 37.6 Z" vector-effect="non-scaling-stroke"/></g></svg>